<svg preserveAspectRatio="none" overflow="visible" style="display: block;" width="16" height="16" viewBox="0 0 16 16" fill="none" xmlns="http://www.w3.org/2000/svg">
<g id="ic-time">
<g id="Vector">
</g>
<path id="Vector_2" d="M8.0026 14.6688C4.3206 14.6688 1.33594 11.6841 1.33594 8.00212C1.33594 4.32012 4.3206 1.33545 8.0026 1.33545C11.6846 1.33545 14.6693 4.32012 14.6693 8.00212C14.6693 11.6841 11.6846 14.6688 8.0026 14.6688ZM8.0026 13.3354C9.41709 13.3354 10.7736 12.7735 11.7738 11.7734C12.774 10.7732 13.3359 9.4166 13.3359 8.00212C13.3359 6.58763 12.774 5.23107 11.7738 4.23088C10.7736 3.23069 9.41709 2.66878 8.0026 2.66878C6.58812 2.66878 5.23156 3.23069 4.23137 4.23088C3.23117 5.23107 2.66927 6.58763 2.66927 8.00212C2.66927 9.4166 3.23117 10.7732 4.23137 11.7734C5.23156 12.7735 6.58812 13.3354 8.0026 13.3354V13.3354ZM8.66927 8.00212H11.3359V9.33545H7.33594V4.66878H8.66927V8.00212Z" fill="#3E3E3E"/>
</g>
</svg>
