<svg preserveAspectRatio="none" overflow="visible" style="display: block;" width="18" height="18" viewBox="0 0 18 18" fill="none" xmlns="http://www.w3.org/2000/svg">
<g id="Target" clip-path="url(#clip0_0_39)">
<path id="Vector" d="M8.99982 16.4996C13.142 16.4996 16.4998 13.1417 16.4998 8.99956C16.4998 4.85742 13.142 1.49956 8.99982 1.49956C4.85769 1.49956 1.49982 4.85742 1.49982 8.99956C1.49982 13.1417 4.85769 16.4996 8.99982 16.4996Z" stroke="#9D9D9D" stroke-width="1.5" stroke-linecap="round" stroke-linejoin="round"/>
<path id="Vector_2" d="M9 13.4995C11.4853 13.4995 13.5 11.4848 13.5 8.99951C13.5 6.51423 11.4853 4.49951 9 4.49951C6.51472 4.49951 4.5 6.51423 4.5 8.99951C4.5 11.4848 6.51472 13.4995 9 13.4995Z" stroke="#9D9D9D" stroke-width="1.5" stroke-linecap="round" stroke-linejoin="round"/>
<path id="Vector_3" d="M9 10.4998C9.82843 10.4998 10.5 9.82818 10.5 8.99976C10.5 8.17133 9.82843 7.49976 9 7.49976C8.17157 7.49976 7.5 8.17133 7.5 8.99976C7.5 9.82818 8.17157 10.4998 9 10.4998Z" stroke="#9D9D9D" stroke-width="1.5" stroke-linecap="round" stroke-linejoin="round"/>
</g>
<defs>
<clipPath id="clip0_0_39">
<rect width="18" height="18" fill="white"/>
</clipPath>
</defs>
</svg>
